<?xml version="1.0" encoding="iso-8859-1"?>
<!-- Generator: Adobe Illustrator 19.0.0, SVG Export Plug-In . SVG Version: 6.00 Build 0)  -->
<svg version="1.1" id="Layer_1" xmlns="http://www.w3.org/2000/svg" xmlns:xlink="http://www.w3.org/1999/xlink" x="0px" y="0px"
	 viewBox="0 0 512 512" style="enable-background:new 0 0 512 512;" xml:space="preserve">
<path style="fill:#A3A6AA;" d="M256,7.984C119.024,7.984,7.984,119.024,7.984,256S119.024,504.016,256,504.016
	S504.016,392.976,504.016,256S392.976,7.984,256,7.984z M256,306.609c-27.951,0-50.609-22.659-50.609-50.609
	s22.658-50.609,50.609-50.609c27.951,0,50.609,22.659,50.609,50.609C306.609,283.95,283.951,306.609,256,306.609z"/>
<path style="fill:#C1C4C6;" d="M425.873,75.309L285.962,215.218c12.518,9.214,20.647,24.046,20.647,40.782
	c0,27.95-22.658,50.609-50.609,50.609c-16.736,0-31.567-8.128-40.782-20.647L75.309,425.871
	c39.738,42.254,94.121,70.575,155.05,76.832L502.703,230.36C496.447,169.43,468.125,115.049,425.873,75.309z"/>
<path style="fill:#5F666F;" d="M256,174.898c-44.793,0-81.102,36.312-81.102,81.102s36.31,81.102,81.102,81.102
	S337.102,300.79,337.102,256S300.793,174.898,256,174.898z M256,306.609c-27.951,0-50.609-22.659-50.609-50.609
	s22.658-50.609,50.609-50.609c27.951,0,50.609,22.659,50.609,50.609C306.609,283.95,283.951,306.609,256,306.609z"/>
<path style="fill:#C1C4C6;" d="M306.064,13.04L13.04,306.064c3.12,15.225,7.652,29.932,13.422,44.001L350.065,26.463
	C335.996,20.692,321.288,16.161,306.064,13.04z"/>
<path d="M256,197.407c-32.308,0-58.593,26.284-58.593,58.593s26.284,58.593,58.593,58.593s58.593-26.284,58.593-58.593
	S288.308,197.407,256,197.407z M256,298.625c-23.504,0-42.625-19.121-42.625-42.625s19.121-42.625,42.625-42.625
	s42.625,19.121,42.625,42.625S279.504,298.625,256,298.625z M256,166.914c-49.122,0-89.086,39.964-89.086,89.086
	s39.964,89.086,89.086,89.086s89.086-39.964,89.086-89.086S305.123,166.914,256,166.914z M256,329.12
	c-40.319,0-73.119-32.801-73.119-73.119s32.801-73.119,73.119-73.119s73.119,32.801,73.119,73.119S296.319,329.12,256,329.12z
	 M437.02,74.98C388.667,26.629,324.38,0,256,0S123.333,26.629,74.98,74.98C26.629,123.333,0,187.62,0,256
	s26.629,132.667,74.98,181.02C123.333,485.372,187.619,512,256,512s132.667-26.629,181.02-74.98
	C485.372,388.667,512,324.381,512,256S485.372,123.333,437.02,74.98z M425.73,425.73c-45.337,45.337-105.613,70.304-169.729,70.304
	S131.609,471.066,86.273,425.73C40.935,380.393,15.967,320.116,15.967,256S40.935,131.608,86.271,86.271S191.885,15.967,256,15.967
	s124.392,24.968,169.729,70.304S496.033,191.885,496.033,256S471.065,380.393,425.73,425.73z"/>
<g>
</g>
<g>
</g>
<g>
</g>
<g>
</g>
<g>
</g>
<g>
</g>
<g>
</g>
<g>
</g>
<g>
</g>
<g>
</g>
<g>
</g>
<g>
</g>
<g>
</g>
<g>
</g>
<g>
</g>
</svg>
