<svg width="512" height="461.99999999999994" xmlns="http://www.w3.org/2000/svg">

 <g>
  <title>background</title>
  <rect fill="none" id="canvas_background" height="464" width="514" y="-1" x="-1"/>
 </g>
 <g>
  <title>Layer 1</title>
  <rect id="svg_1" fill="#ECF0F1" height="345.169" width="488.989" y="10.8407" x="11.506"/>
  <rect id="svg_2" fill="#9E9E9E" height="97.798" width="488.989" y="356.0087" x="11.506"/>
  <circle id="svg_3" fill="#B71C1C" r="126.561996" cy="183.4247" cx="256"/>
  <polygon id="svg_4" fill="#ECF0F1" points="227.81100463867188,133.60473537445068 314.1029968261719,183.42472743988037 227.81100463867188,233.24571132659912 "/>
  <path id="svg_6" fill="#231F20" d="m500.494,-0.6653l-488.988,0c-6.355,0 -11.506,5.152 -11.506,11.506l0,442.966c0,6.353 5.151,11.506 11.506,11.506l488.989,0c6.355,0 11.506,-5.152 11.506,-11.506l0,-442.966c-0.001,-6.354 -5.152,-11.506 -11.507,-11.506zm-477.483,23.011l465.978,0l0,322.158l-465.978,0l0,-322.158zm465.978,419.956l-465.978,0l0,-74.787l465.978,0l0,74.787z"/>
  <path id="svg_7" fill="#231F20" d="m367.405,299.6547c-0.668,0.641 -1.342,1.275 -2.019,1.904c-4.656,4.324 -4.926,11.605 -0.602,16.261c2.268,2.441 5.345,3.676 8.435,3.676c2.802,0 5.611,-1.018 7.826,-3.074c0.769,-0.715 1.531,-1.432 2.288,-2.158c4.586,-4.399 4.739,-11.682 0.341,-16.269c-4.398,-4.586 -11.682,-4.739 -16.269,-0.34z"/>
  <path id="svg_8" fill="#231F20" d="m428.584,171.9197c-6.355,0 -11.506,5.152 -11.506,11.506c0,32.79 -9.836,64.364 -28.446,91.306c-3.612,5.229 -2.301,12.395 2.928,16.007c1.995,1.377 4.273,2.039 6.528,2.039c3.652,0 7.244,-1.735 9.477,-4.968c21.277,-30.804 32.524,-66.899 32.524,-104.384c0.001,-6.354 -5.15,-11.506 -11.505,-11.506z"/>
  <path id="svg_9" fill="#231F20" d="m256,45.3577c-76.13,0 -138.067,61.937 -138.067,138.067s61.937,138.068 138.067,138.068s138.067,-61.937 138.067,-138.067s-61.937,-138.068 -138.067,-138.068zm0,253.123c-63.442,0 -115.056,-51.613 -115.056,-115.056s51.614,-115.056 115.056,-115.056s115.056,51.613 115.056,115.056s-51.614,115.056 -115.056,115.056z"/>
  <path id="svg_10" fill="#231F20" d="m319.856,173.4607l-86.292,-49.822c-3.56,-2.055 -7.946,-2.056 -11.506,0c-3.56,2.055 -5.753,5.854 -5.753,9.964l0,99.643c0,4.11 2.193,7.909 5.753,9.964c1.78,1.029 3.766,1.542 5.753,1.542c1.987,0 3.973,-0.513 5.753,-1.542l86.292,-49.822c3.56,-2.055 5.753,-5.854 5.753,-9.964c0,-4.109 -2.193,-7.908 -5.753,-9.963zm-80.539,39.857l0,-59.787l51.775,29.894l-51.775,29.893z"/>
  <path id="svg_11" fill="#231F20" d="m112.18,416.4137l330.594,0c6.355,0 11.506,-5.152 11.506,-11.506c0,-6.353 -5.151,-11.506 -11.506,-11.506l-330.594,0c-6.355,0 -11.506,5.152 -11.506,11.506c0,6.354 5.151,11.506 11.506,11.506z"/>
  <path id="svg_12" fill="#231F20" d="m69.226,416.4137l4.027,0c6.355,0 11.506,-5.152 11.506,-11.506c0,-6.353 -5.151,-11.506 -11.506,-11.506l-4.027,0c-6.355,0 -11.506,5.152 -11.506,11.506c0,6.354 5.151,11.506 11.506,11.506z"/>
 </g>
</svg>