<?xml version="1.0" encoding="iso-8859-1"?>
<!-- Generator: Adobe Illustrator 19.0.0, SVG Export Plug-In . SVG Version: 6.00 Build 0)  -->
<svg version="1.1" id="Layer_1" xmlns="http://www.w3.org/2000/svg" xmlns:xlink="http://www.w3.org/1999/xlink" x="0px" y="0px"
	 viewBox="0 0 512 512" style="enable-background:new 0 0 512 512;" xml:space="preserve">
<g>
	<path style="fill:#F7B239;" d="M372.345,171.39c0,6.327-2.066,12.158-5.569,16.864c-36.425,32.539-33.645,124.541-51.94,187.065
		c-19.376,66.217-58.75,102.162-58.777,102.599c-0.013,0.222-0.026,0.392-0.039,0.523c-0.013,0.235-0.013,0.353-0.013,0.353
		s-34.215-45.1-57.522-111.319c-25.711-73.047-41.22-168.307-52.28-178.319c-0.327-0.288-0.641-0.601-0.967-0.889v-0.013
		c-3.491-4.719-5.569-10.537-5.569-16.864c0-10.315,5.504-19.335,13.74-24.29c-4.314-4.981-6.942-11.465-6.942-18.564
		c0-10.903,6.158-20.355,15.165-25.101c-1.752-3.687-2.745-7.805-2.745-12.158c0-12.759,8.419-23.532,20.002-27.101
		c-0.301-1.66-0.471-3.36-0.471-5.112c0-14.734,11.243-26.826,25.61-28.212c-0.065-0.824-0.118-1.66-0.118-2.51
		C203.909,12.694,216.604,0,232.252,0c9.949,0,18.695,5.138,23.754,12.89C261.066,5.138,269.812,0,279.76,0
		c0.497,0,0.98,0.013,1.464,0.039c0.784,0.039,1.556,0.105,2.314,0.222c0.601,0.065,1.19,0.17,1.765,0.288
		c0.431,0.078,0.863,0.183,1.281,0.288c0.379,0.092,0.758,0.196,1.124,0.301c0.497,0.144,0.98,0.301,1.451,0.471
		c0.34,0.118,0.667,0.235,0.994,0.379c0.092,0.026,0.17,0.052,0.248,0.092h0.013c10.367,4.21,17.688,14.381,17.688,26.264
		c0,0.85-0.052,1.686-0.118,2.51c14.367,1.386,25.61,13.478,25.61,28.212c0,1.752-0.17,3.451-0.471,5.112
		c11.583,3.569,20.002,14.341,20.002,27.101c0,4.353-0.994,8.471-2.745,12.158c9.007,4.746,15.165,14.198,15.165,25.101
		c0,7.099-2.628,13.583-6.942,18.564C366.841,152.055,372.345,161.075,372.345,171.39z"/>
	<path style="fill:#F7B239;" d="M251.052,432.724c2.824,4.432,5.569,8.484,8.249,12.21c-0.366,2.928-0.706,5.713-0.994,8.315
		c-0.092,0.824-0.183,1.621-0.275,2.405c-0.118,1.164-0.248,2.288-0.353,3.36c-0.052,0.523-0.105,1.033-0.157,1.53
		c-0.157,1.517-0.288,2.928-0.418,4.262c-0.078,0.889-0.157,1.752-0.235,2.562c-0.039,0.405-0.065,0.797-0.105,1.19
		c-0.065,0.771-0.131,1.503-0.183,2.196c-0.039,0.431-0.065,0.85-0.105,1.242c-0.039,0.562-0.078,1.085-0.118,1.582
		c-0.157,2.026-0.248,3.491-0.301,4.34c-0.013,0.222-0.026,0.392-0.039,0.523c-0.013,0.235-0.013,0.353-0.013,0.353
		S255.091,460.609,251.052,432.724z"/>
</g>
<path style="fill:#E09B2D;" d="M272.714,28.343c0,0.85,0.052,1.686,0.118,2.51c-14.367,1.386-25.61,13.478-25.61,28.212
	c0,1.752,0.17,3.451,0.471,5.112c-11.583,3.569-20.002,14.341-20.002,27.101c0,4.353,0.994,8.471,2.745,12.158
	c-9.007,4.746-15.165,14.198-15.165,25.101c0,7.099,2.628,13.583,6.942,18.564c-8.236,4.955-13.74,13.975-13.74,24.29
	c0,6.327,2.079,12.145,5.569,16.864v0.013c0.327,0.288,0.641,0.601,0.967,0.889c-5.112,3.948-8.419,10.119-8.419,17.074
	c0,6.72,3.072,12.707,7.883,16.668c-4.811,3.948-7.883,9.949-7.883,16.668c0,4.17-3.883,11.217-8.406,18.59
	c-6.122-11.503-40.595,6.057-48.07-4.419c-9.381-13.146,7.827-53.96-3.909-64.582c-0.327-0.288-0.641-0.601-0.967-0.889v-0.013
	c-3.491-4.719-5.569-10.537-5.569-16.864c0-10.315,5.504-19.335,13.74-24.29c-4.314-4.981-6.942-11.465-6.942-18.564
	c0-10.903,6.157-20.355,15.165-25.101c-1.752-3.687-2.745-7.805-2.745-12.158c0-12.759,8.419-23.532,20.002-27.101
	c-0.301-1.66-0.471-3.36-0.471-5.112c0-14.734,11.243-26.826,25.61-28.212c-0.065-0.824-0.118-1.66-0.118-2.51
	C203.909,12.694,216.604,0,232.252,0c9.949,0,18.695,5.138,23.754,12.89C261.066,5.138,269.812,0,279.76,0
	c0.497,0,0.98,0.013,1.464,0.039c0.784,0.039,1.556,0.118,2.314,0.222c0.601,0.065,1.19,0.17,1.765,0.288
	c0.431,0.078,0.863,0.183,1.281,0.288c0.379,0.092,0.758,0.196,1.124,0.301c0.497,0.144,0.98,0.301,1.451,0.471
	c0.34,0.118,0.667,0.235,0.994,0.379c0.092,0.026,0.17,0.052,0.248,0.092C280.035,6.301,272.714,16.459,272.714,28.343z"/>
<path style="fill:#9AD14B;" d="M393.066,168.736c-9.387,5.661-18.133,12.223-26.29,19.518
	c-100.612,89.878-110.769,290.539-110.769,290.539l0,0c0-0.003-10.159-200.648-110.769-290.526v-0.013
	c-8.158-7.282-16.904-13.845-26.303-19.518c0,0,107.903,306.99,105.697,306.45V512h62.751v-36.814
	C429.03,440.62,393.066,168.736,393.066,168.736z"/>
<path style="fill:#90BC42;" d="M177.814,225.075c-9.641-13.511-20.445-25.97-32.577-36.808v-0.013
	c-8.158-7.282-16.904-13.845-26.303-19.518c0,0-35.964,271.884,105.697,306.45c9.609,2.353,20.054,3.608,31.376,3.608
	c0,0-0.329-6.45-1.439-17.513C184.364,416.588,176.023,296.748,177.814,225.075z"/>
<g>
</g>
<g>
</g>
<g>
</g>
<g>
</g>
<g>
</g>
<g>
</g>
<g>
</g>
<g>
</g>
<g>
</g>
<g>
</g>
<g>
</g>
<g>
</g>
<g>
</g>
<g>
</g>
<g>
</g>
</svg>
