<?xml version="1.0" encoding="iso-8859-1"?>
<!-- Generator: Adobe Illustrator 19.0.0, SVG Export Plug-In . SVG Version: 6.00 Build 0)  -->
<svg version="1.1" id="Capa_1" xmlns="http://www.w3.org/2000/svg" xmlns:xlink="http://www.w3.org/1999/xlink" x="0px" y="0px"
	 viewBox="0 0 512 512" style="enable-background:new 0 0 512 512;" xml:space="preserve">
<path style="fill:#F5CA26;" d="M300.927,62.022c-16.529-0.54-31.469,6.31-41.768,17.509c-1.96,2.13-5.34,2.13-7.29,0
	c-10.3-11.199-25.239-18.049-41.768-17.509c-28.989,0.94-52.358,25.049-52.458,54.047c-0.1,30.059,24.239,54.457,54.277,54.457
	c2.53,0,5.01-0.17,7.45-0.51c2.98-0.41,5.61,1.96,5.61,4.96v47.838h61.067v-47.838c0-3,2.63-5.37,5.6-4.96
	c2.44,0.34,4.93,0.51,7.46,0.51c30.039,0,54.377-24.399,54.267-54.457C353.274,87.07,329.905,62.961,300.927,62.022z
	 M211.921,137.118c-11.519,0-20.859-9.34-20.859-20.859s9.34-20.859,20.859-20.859c11.509,0,20.849,9.339,20.849,20.859
	S223.43,137.118,211.921,137.118z M299.107,137.118c-11.519,0-20.859-9.34-20.859-20.859s9.34-20.859,20.859-20.859
	s20.859,9.339,20.859,20.859S310.626,137.118,299.107,137.118z"/>
<path style="fill:#EAAF13;" d="M300.927,62.021c-5.11-0.17-10.06,0.37-14.779,1.53c25.489,6.07,44.578,29.159,44.678,56.257
	c0.07,21.709-11.779,40.658-29.379,50.668c28.959-1.23,52.038-25.139,51.928-54.407C353.274,87.07,329.905,62.961,300.927,62.021z"
	/>
<path style="fill:#E9EFF4;" d="M280.952,200.922c-36.996-0.434-70.33,15.266-93.414,40.502
	c-6.408,7.006-12.791,14.034-19.397,20.854L11.953,423.515c-9.601,9.912-2.578,26.493,11.222,26.493h256.283
	c69.406,0,125.552-56.772,124.534-126.41C403.01,256.426,348.127,201.71,280.952,200.922z"/>
<path style="fill:#D3DCE2;" d="M279.458,450.013H230.79c69.407,0,125.554-56.777,124.534-126.414
	c-0.87-59.407-43.888-109.065-100.285-120.294c8.37-1.66,17.029-2.49,25.909-2.38c67.177,0.79,122.064,55.497,123.044,122.674
	C405.012,393.236,348.865,450.013,279.458,450.013z"/>
<circle style="fill:#DB8137;" cx="139.557" cy="290.429" r="75.06"/>
<path style="fill:#D86C1A;" d="M214.621,290.431c0,41.448-33.608,75.057-75.067,75.057c-22.899,0-43.398-10.26-57.167-26.429
	c9.87,4.76,20.929,7.43,32.618,7.43c41.458,0,75.067-33.608,75.067-75.067c0-18.539-6.72-35.518-17.869-48.608
	C197.302,234.963,214.621,260.672,214.621,290.431z"/>
<path d="M183.56,116.258c0,15.636,12.721,28.357,28.356,28.357c15.636,0,28.357-12.721,28.357-28.357
	c0-15.635-12.721-28.356-28.357-28.356C196.281,87.902,183.56,100.622,183.56,116.258z M225.273,116.258
	c0,7.365-5.992,13.357-13.357,13.357c-7.365,0-13.357-5.992-13.357-13.357c0-7.365,5.992-13.357,13.357-13.357
	C219.282,102.901,225.273,108.893,225.273,116.258z"/>
<path d="M299.108,87.902c-15.636,0-28.357,12.721-28.357,28.356c0,15.636,12.721,28.357,28.357,28.357
	c15.635,0,28.356-12.721,28.356-28.357C327.464,100.622,314.743,87.902,299.108,87.902z M299.108,129.615
	c-7.365,0-13.357-5.992-13.357-13.357c0-7.365,5.992-13.357,13.357-13.357s13.357,5.992,13.357,13.357
	S306.473,129.615,299.108,129.615z"/>
<path d="M476.82,385.541h-36.254c-2.497,0-4.848-1.631-5.717-3.967c-0.734-1.973,0.429-4.287,3.067-8.74l0.075-0.127
	c0.415-0.7,1.261-1.657,2.08-2.582c0.616-0.696,1.223-1.388,1.779-2.081l0.475-0.592c3.09-3.849,6.285-7.829,8.939-12.411
	c9.086-15.684,5.891-33.163-7.768-42.506c-11.66-7.976-23.25-7.695-33.22-5.125c-3.899-28.387-16.968-54.699-37.685-75.355
	c-21.585-21.52-49.285-34.719-79.046-37.892v-16.386c1.849,0.166,3.711,0.249,5.565,0.249c16.54,0,32.079-6.452,43.754-18.169
	c11.675-11.716,18.072-27.278,18.015-43.82c-0.019-5.364-0.741-10.701-2.147-15.863c-1.088-3.996-5.21-6.354-9.207-5.265
	c-3.996,1.088-6.354,5.21-5.265,9.207c1.06,3.895,1.605,7.923,1.62,11.974c0.044,12.526-4.801,24.31-13.64,33.181
	c-8.84,8.871-20.606,13.757-33.13,13.757c-2.15,0-4.314-0.148-6.433-0.44c-3.544-0.49-7.128,0.585-9.833,2.944
	c-2.731,2.381-4.297,5.824-4.297,9.446v18.448c-15.891,0.115-31.48,3.1-46.064,8.659v-27.106c0-3.622-1.566-7.066-4.297-9.446
	c-2.706-2.359-6.293-3.434-9.834-2.944c-2.119,0.292-4.283,0.44-6.433,0.44c-12.523,0-24.289-4.886-33.129-13.757
	s-13.684-20.654-13.641-33.181c0.086-24.871,20.361-45.765,45.196-46.577c13.646-0.45,26.77,5.055,36.004,15.095
	c2.349,2.554,5.69,4.018,9.166,4.018c3.476,0,6.817-1.464,9.167-4.018c9.232-10.039,22.343-15.548,36.003-15.094
	c4.209,0.137,8.371,0.848,12.372,2.112c3.95,1.248,8.163-0.942,9.411-4.891c1.248-3.95-0.942-8.163-4.891-9.411
	c-5.306-1.677-10.825-2.62-16.402-2.802c-17.118-0.55-33.602,5.967-45.66,17.982c-12.059-12.015-28.538-18.527-45.66-17.982
	c-15.968,0.522-30.953,7.191-42.194,18.778c-11.237,11.582-17.456,26.76-17.511,42.739c-0.058,16.543,6.341,32.105,18.015,43.821
	c11.675,11.716,27.214,18.168,43.754,18.168c1.853,0,3.716-0.083,5.565-0.249v31.119c-9.142,4.86-17.729,10.806-25.564,17.74
	c-14.259-11.726-32.5-18.776-52.359-18.776c-45.526,0-82.564,37.038-82.564,82.564c0,20.879,7.806,39.959,20.632,54.514
	l-71.06,73.357c-6.573,6.786-8.368,16.407-4.683,25.107c3.685,8.7,11.844,14.104,21.292,14.104h256.283
	c35.636,0,69.039-13.98,94.055-39.364c25.012-25.38,38.499-58.996,37.978-94.655c-0.004-0.272-0.016-0.543-0.022-0.815
	c9.929-3.104,16.803-2.38,23.557,2.24c8.091,5.534,7.466,15.342,3.258,22.607c-2.084,3.598-4.791,6.97-7.657,10.541l-0.479,0.596
	c-0.409,0.51-0.86,1.016-1.314,1.529c-1.223,1.383-2.609,2.951-3.749,4.875l-0.075,0.126c-3.178,5.366-7.531,12.714-4.22,21.615
	c3.056,8.216,11.003,13.737,19.775,13.737h36.254c11.126,0,20.178,9.052,20.178,20.178c0,4.142,3.358,7.5,7.5,7.5s7.5-3.358,7.5-7.5
	C511.997,401.322,496.216,385.541,476.82,385.541z M362.83,407.616c-22.175,22.501-51.784,34.893-83.372,34.893H23.175
	c-4.993,0-6.988-3.793-7.48-4.955c-0.493-1.163-1.829-5.234,1.645-8.821l71.18-73.481c14.059,11.092,31.782,17.737,51.038,17.737
	c18.688,0,36.316-6.091,50.978-17.613c3.257-2.559,3.822-7.274,1.263-10.531c-2.56-3.257-7.275-3.821-10.531-1.263
	c-11.993,9.425-26.416,14.408-41.71,14.408c-37.255,0-67.565-30.309-67.565-67.564s30.31-67.565,67.565-67.565
	s67.564,30.31,67.564,67.565c0,3.87-0.329,7.748-0.978,11.527c-0.701,4.082,2.039,7.96,6.122,8.661
	c4.084,0.705,7.96-2.039,8.661-6.122c0.793-4.615,1.195-9.347,1.195-14.066c0-20.266-7.353-38.839-19.514-53.223
	c21.211-18.454,48.527-28.79,76.886-28.79c0.455,0,0.915,0.002,1.371,0.008c30.523,0.358,59.338,12.524,81.134,34.256
	c21.798,21.732,34.048,50.51,34.494,81.03C396.955,355.32,385,385.119,362.83,407.616z"/>
<circle cx="98.327" cy="398.649" r="15.944"/>
<g>
</g>
<g>
</g>
<g>
</g>
<g>
</g>
<g>
</g>
<g>
</g>
<g>
</g>
<g>
</g>
<g>
</g>
<g>
</g>
<g>
</g>
<g>
</g>
<g>
</g>
<g>
</g>
<g>
</g>
</svg>
