<?xml version="1.0" encoding="iso-8859-1"?>
<!-- Generator: Adobe Illustrator 19.0.0, SVG Export Plug-In . SVG Version: 6.00 Build 0)  -->
<svg version="1.1" id="Capa_1" xmlns="http://www.w3.org/2000/svg" xmlns:xlink="http://www.w3.org/1999/xlink" x="0px" y="0px"
	 viewBox="0 0 512.002 512.002" style="enable-background:new 0 0 512.002 512.002;" xml:space="preserve">
<path style="fill:#D3DCE2;" d="M504.388,430.785c-4.204,0-7.612-3.408-7.612-7.612c0-11.292-9.187-20.479-20.479-20.479h-36.795
	c-8.903,0-16.969-5.603-20.07-13.942c-3.361-9.033,1.057-16.491,4.283-21.937l0.076-0.128c1.157-1.953,2.564-3.545,3.805-4.948
	c0.46-0.52,0.918-1.034,1.333-1.552l0.486-0.605c2.909-3.624,5.656-7.047,7.772-10.698c4.272-7.374,4.905-17.327-3.306-22.944
	c-7.895-5.401-15.944-5.563-28.715-0.577c-3.915,1.528-8.329-0.407-9.858-4.322c-1.529-3.916,0.406-8.329,4.322-9.858
	c11.75-4.587,27.238-8.484,42.846,2.193c13.863,9.482,17.105,27.222,7.884,43.14c-2.694,4.651-5.937,8.69-9.072,12.597l-0.482,0.601
	c-0.564,0.704-1.181,1.405-1.806,2.112c-0.831,0.94-1.69,1.911-2.11,2.621l-0.076,0.129c-2.677,4.52-3.857,6.869-3.112,8.871
	c0.882,2.371,3.268,4.026,5.803,4.026H476.3c19.686,0,35.702,16.016,35.702,35.702C512,427.377,508.592,430.785,504.388,430.785z"/>
<path style="fill:#F5CA26;" d="M297.782,59.128c-16.776-0.548-31.938,6.404-42.391,17.77c-1.989,2.162-5.419,2.162-7.398,0
	c-10.453-11.367-25.615-18.318-42.391-17.77c-29.421,0.954-53.138,25.422-53.24,54.853c-0.102,30.507,24.6,55.27,55.087,55.27
	c2.568,0,5.085-0.172,7.561-0.517c3.024-0.416,5.693,1.989,5.693,5.034v48.551h61.978v-48.551c0-3.045,2.669-5.45,5.683-5.034
	c2.476,0.345,5.003,0.517,7.571,0.517c30.487,0,55.188-24.763,55.077-55.27C350.91,84.55,327.193,60.082,297.782,59.128z
	 M207.449,135.344c-11.691,0-21.17-9.479-21.17-21.17s9.479-21.17,21.17-21.17c11.681,0,21.16,9.479,21.16,21.17
	S219.13,135.344,207.449,135.344z M295.935,135.344c-11.691,0-21.17-9.479-21.17-21.17s9.479-21.17,21.17-21.17
	s21.17,9.479,21.17,21.17S307.626,135.344,295.935,135.344z"/>
<path style="fill:#EAAF13;" d="M297.782,59.127c-5.186-0.173-10.21,0.376-15,1.553c25.869,6.16,45.243,29.593,45.344,57.096
	c0.071,22.033-11.955,41.264-29.817,51.423c29.391-1.248,52.814-25.514,52.702-55.219C350.91,84.55,327.193,60.081,297.782,59.127z"
	/>
<path style="fill:#E9EFF4;" d="M277.51,200.1c-37.547-0.44-71.379,15.494-94.807,41.106c-6.504,7.11-12.982,14.244-19.687,21.165
	L4.499,426.012c-9.744,10.06-2.616,26.889,11.389,26.889h260.105c70.441,0,127.424-57.618,126.391-128.296
	C401.388,256.431,345.686,200.9,277.51,200.1z"/>
<path style="fill:#D3DCE2;" d="M275.993,452.906h-49.394c70.442,0,127.427-57.624,126.391-128.3
	c-0.883-60.293-44.542-110.691-101.781-122.088c8.494-1.685,17.283-2.527,26.295-2.415c68.179,0.802,123.885,56.325,124.879,124.504
	C403.419,395.282,346.435,452.906,275.993,452.906z"/>
<circle style="fill:#DB8137;" cx="134.01" cy="290.941" r="76.18"/>
<path style="fill:#D86C1A;" d="M210.189,290.943c0,42.066-34.11,76.176-76.186,76.176c-23.24,0-44.045-10.412-58.02-26.823
	c10.017,4.831,21.241,7.54,33.105,7.54c42.076,0,76.186-34.109,76.186-76.186c0-18.815-6.82-36.048-18.136-49.333
	C192.611,234.648,210.189,260.741,210.189,290.943z"/>
<circle style="fill:#5B3E3E;" cx="92.17" cy="400.771" r="16.182"/>
<g>
</g>
<g>
</g>
<g>
</g>
<g>
</g>
<g>
</g>
<g>
</g>
<g>
</g>
<g>
</g>
<g>
</g>
<g>
</g>
<g>
</g>
<g>
</g>
<g>
</g>
<g>
</g>
<g>
</g>
</svg>
